<?xml version="1.0" standalone="no"?>
<!DOCTYPE svg PUBLIC "-//W3C//DTD SVG 20010904//EN"
 "http://www.w3.org/TR/2001/REC-SVG-20010904/DTD/svg10.dtd">
<svg version="1.0" xmlns="http://www.w3.org/2000/svg"
 width="1280.000000pt" height="720.000000pt" viewBox="0 0 1280.000000 720.000000"
 preserveAspectRatio="xMidYMid meet">

<g transform="translate(0.000000,720.000000) scale(0.100000,-0.100000)"
fill="#000000" stroke="none">
<path d="M7763 5758 c-4 -7 -85 -163 -180 -348 l-172 -335 -343 -111 c-311
-100 -343 -112 -346 -133 -2 -13 -1 -33 2 -46 3 -12 100 -120 216 -240 115
-120 210 -222 210 -226 0 -4 -30 -183 -66 -396 -36 -213 -68 -407 -71 -430 -9
-73 42 -122 114 -108 17 3 141 71 275 152 374 225 406 243 426 236 20 -8 255
-142 541 -308 164 -95 213 -119 252 -123 41 -4 51 -1 73 21 48 48 46 64 -62
509 -55 227 -103 427 -106 443 -6 29 1 39 121 157 70 69 169 161 218 206 50
44 136 124 193 179 99 95 102 100 102 141 0 56 -31 88 -91 96 -24 3 -226 19
-449 36 -223 16 -419 32 -435 35 -33 6 -15 -22 -290 433 -55 91 -105 167 -112
169 -6 2 -15 -2 -20 -9z m142 -255 c196 -327 224 -371 239 -376 8 -3 90 -11
183 -17 92 -7 174 -14 182 -16 8 -3 -21 -25 -68 -51 -94 -53 -261 -177 -406
-301 -326 -280 -718 -759 -932 -1140 -19 -35 -37 -62 -38 -60 -3 3 30 209 90
555 20 117 35 221 33 232 -2 10 -99 118 -215 240 -117 121 -213 226 -213 234
0 18 -1 18 355 132 165 53 306 99 313 103 7 4 88 154 180 334 92 180 169 328
172 328 3 0 59 -89 125 -197z m467 -663 l23 -40 58 6 c31 4 57 3 57 -2 0 -4
-16 -25 -36 -45 l-36 -37 21 -40 c35 -69 28 -75 -45 -41 l-45 22 -36 -37 c-49
-50 -57 -47 -49 19 l6 54 -44 19 c-60 27 -64 39 -14 47 72 11 78 14 78 43 0
42 11 72 26 72 7 0 24 -18 36 -40z m320 -272 c-53 -51 -125 -120 -159 -153
l-62 -60 45 -180 c107 -432 174 -718 174 -742 0 -33 -26 -63 -55 -63 -19 0
-762 415 -789 441 -6 5 -18 9 -27 9 -10 0 -167 -90 -350 -200 -205 -123 -343
-200 -359 -200 -14 0 -35 7 -46 15 -21 16 -46 -11 206 230 392 374 735 617
1200 850 139 70 300 144 312 145 4 0 -37 -42 -90 -92z"/>
<path d="M7995 3390 c-83 -42 -112 -82 -168 -235 l-43 -119 -47 -11 c-60 -13
-87 -36 -87 -74 0 -32 30 -61 62 -61 10 0 18 -2 18 -5 0 -3 -19 -56 -41 -118
-65 -176 -103 -243 -157 -279 -35 -23 -81 -23 -89 -1 -4 9 18 91 50 187 32 94
57 181 57 194 0 65 -59 133 -133 153 -33 9 -53 8 -98 -5 -52 -14 -60 -14 -88
0 -25 13 -38 13 -65 4 -39 -13 -38 -10 -128 -265 -54 -155 -63 -174 -104 -212
-24 -22 -65 -48 -91 -57 -90 -31 -207 -14 -232 32 -15 29 -14 92 2 98 7 2 30
-2 50 -11 141 -59 316 61 317 217 0 58 -13 95 -48 131 -68 73 -179 91 -278 48
-92 -40 -123 -89 -194 -305 -38 -115 -48 -134 -90 -178 -41 -43 -52 -49 -81
-46 -33 3 -34 5 -33 43 0 22 25 108 54 192 52 146 53 153 41 195 -28 93 -134
146 -230 114 -44 -14 -51 -14 -81 0 -27 14 -36 14 -68 2 -42 -16 -38 -6 -142
-300 -50 -142 -70 -185 -97 -213 -21 -21 -44 -35 -58 -35 -21 0 -25 5 -25 33
0 17 18 83 40 145 22 62 40 128 40 146 0 56 -36 97 -126 141 -73 35 -81 43
-82 68 -2 85 -99 126 -162 70 -38 -34 -49 -94 -30 -153 12 -36 10 -46 -36
-172 -44 -122 -53 -138 -104 -189 -63 -63 -123 -89 -206 -89 -95 0 -144 34
-144 99 0 22 5 43 10 46 6 4 31 -1 55 -11 52 -20 134 -15 183 10 85 44 138
137 130 230 -6 70 -38 117 -103 153 -72 39 -151 38 -230 -2 -84 -43 -108 -80
-170 -255 -56 -158 -84 -206 -145 -247 -41 -28 -100 -30 -123 -5 -26 29 -20
65 41 237 l57 160 63 5 c54 4 67 9 88 33 45 52 24 96 -49 104 -26 3 -47 7 -47
8 0 2 18 54 40 116 22 62 40 125 40 139 0 58 -82 91 -129 53 -13 -11 -42 -75
-75 -163 -32 -87 -58 -146 -67 -147 -93 -12 -129 -34 -129 -80 0 -30 34 -63
65 -63 14 0 25 -2 25 -4 0 -3 -25 -76 -55 -162 -61 -174 -67 -222 -35 -284 37
-72 148 -120 243 -106 50 8 136 46 156 69 18 23 44 21 66 -3 24 -27 109 -57
181 -65 130 -14 292 42 373 130 42 46 91 138 137 263 27 73 38 81 74 62 41
-22 42 -43 5 -147 -54 -150 -43 -227 37 -281 35 -23 49 -25 151 -27 124 -3
157 7 181 53 7 15 44 113 81 217 36 105 76 205 87 223 23 37 69 65 101 60 37
-5 32 -52 -23 -206 -58 -165 -63 -220 -27 -272 34 -51 90 -75 167 -74 71 2
121 19 169 60 l32 26 37 -25 c20 -15 57 -34 82 -43 57 -21 195 -24 271 -5 51
12 59 12 82 -4 34 -22 85 -14 116 19 12 13 53 112 95 232 63 181 79 215 113
252 45 47 85 56 103 22 9 -16 0 -52 -45 -182 -30 -88 -55 -174 -55 -190 0
-100 105 -180 217 -164 25 3 43 2 43 -4 0 -5 -28 -87 -62 -182 -34 -95 -61
-186 -61 -202 0 -33 42 -76 74 -76 33 0 74 27 88 57 7 15 48 129 91 253 43
124 116 333 162 465 l84 240 60 6 c75 7 89 14 104 49 20 49 -16 90 -79 90
l-30 0 36 106 c41 117 64 145 103 124 19 -10 21 -17 15 -58 -5 -42 -3 -50 18
-70 34 -32 92 -27 119 8 23 31 33 87 24 135 -8 43 -59 103 -103 121 -48 21
-131 17 -178 -6z m-2961 -516 c27 -26 24 -79 -5 -109 -14 -15 -33 -20 -68 -20
-27 0 -53 3 -57 7 -10 11 25 96 49 119 25 23 60 25 81 3z m1757 6 c28 -15 27
-90 -2 -116 -21 -19 -109 -27 -125 -12 -10 10 24 96 47 119 21 21 51 24 80 9z"/>
<path d="M3960 3351 c-163 -50 -242 -206 -176 -346 13 -27 58 -93 101 -145 42
-52 85 -112 96 -132 25 -49 25 -123 -1 -165 -39 -65 -147 -92 -219 -55 -47 23
-69 58 -76 117 -8 72 -13 84 -45 100 -36 19 -54 19 -90 0 -89 -46 -44 -243 74
-324 187 -129 442 -67 549 133 17 33 22 58 22 126 0 78 -3 90 -34 147 -18 34
-67 102 -109 150 -107 125 -124 174 -76 218 18 17 39 25 61 25 35 0 47 -9 114
-89 35 -40 71 -41 110 -2 34 35 37 67 10 119 -43 82 -128 132 -226 131 -33 0
-71 -4 -85 -8z"/>
<path d="M8918 3349 c-27 -15 -30 -23 -164 -407 -69 -196 -136 -374 -150 -395
-49 -74 -145 -104 -152 -46 -2 14 29 117 68 229 38 112 70 218 70 235 0 62
-68 90 -134 56 -36 -19 -42 -19 -95 -5 -95 24 -191 -5 -237 -73 -25 -38 -144
-370 -151 -423 -8 -54 28 -124 80 -158 58 -39 143 -38 210 1 l47 28 28 -19
c67 -48 182 -52 264 -8 l43 23 45 -26 c64 -37 163 -36 238 3 l53 27 28 -20
c76 -55 195 -49 287 14 69 48 131 138 170 247 16 47 3 85 -34 95 -50 12 -73
-7 -118 -97 -51 -104 -107 -160 -158 -160 -50 0 -52 21 -10 141 133 383 224
658 224 681 0 62 -85 91 -129 44 -21 -22 -88 -203 -241 -644 -39 -110 -78
-175 -122 -202 -41 -25 -86 -26 -95 -3 -7 18 0 40 154 486 57 164 103 307 103
318 0 49 -76 85 -122 58z m-574 -482 c29 -22 23 -81 -23 -220 -46 -137 -74
-177 -122 -177 -55 0 -56 25 -3 198 60 195 93 239 148 199z"/>
</g>
</svg>
